<svg xmlns="http://www.w3.org/2000/svg" viewBox="0 0 231.71 64.51"><defs><style>.cls-1{fill:#3772ff;}.cls-2{fill:#df2935;}.cls-3{fill:#fdca40;}.cls-4{fill:#e6e8e6;}</style></defs><title>rainAsset 3</title><g id="Layer_2" data-name="Layer 2"><g id="Layer_1-2" data-name="Layer 1"><path class="cls-1" d="M21.19,43.63H38.1a20,20,0,0,0,10.13-2.69,20.24,20.24,0,0,0,7.48-7.5,20.65,20.65,0,0,0,2.8-10.61A18.86,18.86,0,0,0,55.73,13a21.13,21.13,0,0,0-7.5-7.38A19.74,19.74,0,0,0,38.1,2.8H2.8V64.51H0V0H38.1A22.32,22.32,0,0,1,49.59,3.14a23.85,23.85,0,0,1,8.55,8.41,21.5,21.5,0,0,1,3.18,11.28,24.38,24.38,0,0,1-3,12.19,21.65,21.65,0,0,1-8.09,8.22L57.5,64.51h-3l-6.94-20a24.76,24.76,0,0,1-2.37.86l6.5,19.09h-3L42.42,46.08c-.23.06-1.06.15-2.49.28l6,18.15H43l-6-18.08H34.51L40.2,64.51h-3L31.51,46.43H21.19Zm0-5.61H38.1a14.39,14.39,0,0,0,10.44-4.27A14.59,14.59,0,0,0,52.9,22.83a13.65,13.65,0,0,0-4.46-10.07A14.36,14.36,0,0,0,38.1,8.41H8.41v56.1H5.61V5.61H38.1A16.9,16.9,0,0,1,46.8,8a18.07,18.07,0,0,1,6.49,6.36,16.15,16.15,0,0,1,2.42,8.48,17.38,17.38,0,0,1-5.2,12.83A17,17,0,0,1,38.1,40.83H21.19Zm0-5.61H38.1a8.87,8.87,0,0,0,9.19-9.58,8.3,8.3,0,0,0-2.8-6.1A9,9,0,0,0,38.1,14H14V64.51h-2.8V11.22H38.1a11.63,11.63,0,0,1,8.37,3.52,11,11,0,0,1,3.63,8.09,11.94,11.94,0,0,1-3.51,9,11.77,11.77,0,0,1-8.49,3.38H21.19Zm-1.56,32.1h-2.8V16.83H38.1a6.36,6.36,0,0,1,4.5,1.77,5.6,5.6,0,0,1,1.89,4.23q0,6.78-6.39,6.78H21.19V26.8H38.1a3.73,3.73,0,0,0,2.63-.88,4.09,4.09,0,0,0,1-3.09,2.91,2.91,0,0,0-1-2.28,3.72,3.72,0,0,0-2.55-.92H19.63Z"/><path class="cls-2" d="M68,64.51H65L90.49,0h3L119,64.51h-3L92,3.78ZM92.36,10.44,94,14,74,64.51H71Zm3.12,7.4L97,21.7,80.09,64.51h-3Zm3,7.71,1.48,3.94-13.83,35h-3ZM90.8,56.8,91.9,54h18.38l1.17,2.81ZM93,51.19l1.09-2.81h14l1.21,2.81Zm2.18-5.61,1.13-2.81h9.58L107,45.58ZM99.53,0l25.52,64.51h-3L96.53,0Zm6,0,25.51,64.51h-3L102.57,0Zm31.55,64.51h-3L108.61,0h3Z"/><path class="cls-3" d="M142,0h2.81V64.51H142Zm5.61,0h2.81V64.51h-2.81Zm5.61,0h2.81V64.51h-2.81Zm5.61,0h2.8V64.51h-2.8Z"/><path class="cls-4" d="M171.87,4.56v60h-2.8V0h3.35L212,64.51h-3.24Zm2.81,8,2.8,4.76V64.51h-2.8Zm1-12.54h3.27l39.66,64.51h-3.27Zm4.64,21.85,2.8,4.72V64.51h-2.8Zm2-21.85h3.31L225.2,64.51h-3.35Zm3.63,31.05,2.8,4.63V64.51h-2.8Zm3-31h3.27L228.9,60V0h2.81V64.51H228.4Zm26,33.46-2.81-4.63V0h2.81Zm5.61,9.2-2.81-4.72V0h2.81ZM226.1,52l-2.81-4.76V0h2.81Z"/></g></g></svg>